<?xml version="1.0" encoding="UTF-8"?>
<svg version="1.1" xmlns="http://www.w3.org/2000/svg" width="32" height="32">
<path d="M0 0 C10.56 0 21.12 0 32 0 C32 10.56 32 21.12 32 32 C21.44 32 10.88 32 0 32 C0 21.44 0 10.88 0 0 Z " fill="#000606" transform="translate(0,0)"/>
<path d="M0 0 C4.1765625 -0.0309375 4.1765625 -0.0309375 8.4375 -0.0625 C9.75512329 -0.07615601 9.75512329 -0.07615601 11.09936523 -0.09008789 C13.06645974 -0.09723091 15.03353621 -0.05031893 17 0 C19.05942471 2.05942471 18.45906816 6.15963735 18.625 9 C18.70234375 10.12535156 18.70234375 10.12535156 18.78125 11.2734375 C18.89826517 13.18009649 18.9539329 15.09030922 19 17 C18 18 18 18 16.23413086 18.11352539 C15.48526611 18.10828857 14.73640137 18.10305176 13.96484375 18.09765625 C12.87224243 18.09390991 12.87224243 18.09390991 11.75756836 18.09008789 C10.8269458 18.08098389 9.89632324 18.07187988 8.9375 18.0625 C4.5134375 18.0315625 4.5134375 18.0315625 0 18 C0 12.06 0 6.12 0 0 Z " fill="#00EAE3" transform="translate(4,7)"/>
<path d="M0 0 C4.29 0 8.58 0 13 0 C13 1.98 13 3.96 13 6 C8.71 6 4.42 6 0 6 C0 4.02 0 2.04 0 0 Z " fill="#001B1A" transform="translate(7,17)"/>
<path d="M0 0 C3.96 0 7.92 0 12 0 C12 1.65 12 3.3 12 5 C8.04 5 4.08 5 0 5 C0 3.35 0 1.7 0 0 Z " fill="#001615" transform="translate(7,9)"/>
<path d="M0 0 C0.99 0 1.98 0 3 0 C3 5.94 3 11.88 3 18 C2.01 18 1.02 18 0 18 C0 12.06 0 6.12 0 0 Z " fill="#00F0E8" transform="translate(25,7)"/>
<path d="M0 0 C0.33 0 0.66 0 1 0 C1.33 1.65 1.66 3.3 2 5 C6.29 5 10.58 5 15 5 C15.66 3.68 16.32 2.36 17 1 C17 3.31 17 5.62 17 8 C11.39 8 5.78 8 0 8 C0 5.36 0 2.72 0 0 Z " fill="#00FDF5" transform="translate(5,17)"/>
</svg>
